<svg width="31" height="23" viewBox="0 0 31 23" fill="none" xmlns="http://www.w3.org/2000/svg">
<path d="M28.9554 0H1.93036C1.41839 0 0.927401 0.201934 0.565388 0.561379C0.203376 0.920823 0 1.40833 0 1.91667V21.0833C0 21.5917 0.203376 22.0792 0.565388 22.4386C0.927401 22.7981 1.41839 23 1.93036 23H28.9554C29.4673 23 29.9583 22.7981 30.3203 22.4386C30.6823 22.0792 30.8857 21.5917 30.8857 21.0833V1.91667C30.8857 1.40833 30.6823 0.920823 30.3203 0.561379C29.9583 0.201934 29.4673 0 28.9554 0ZM27.469 21.0833H3.53255L10.2888 14.145L8.89895 12.8129L1.93036 19.9717V3.37333L13.9275 15.2279C14.2892 15.5849 14.7785 15.7853 15.2884 15.7853C15.7984 15.7853 16.2877 15.5849 16.6493 15.2279L28.9554 3.07625V19.8471L21.8516 12.7937L20.4907 14.145L27.469 21.0833ZM3.19474 1.91667H27.3918L15.2884 13.8671L3.19474 1.91667Z" fill="black"/>
</svg>
