<svg width="298" height="67" viewBox="0 0 298 67" fill="none" xmlns="http://www.w3.org/2000/svg">
<path d="M75.2458 0.0401348C74.1819 1.14183 73.2085 2.14457 72.2414 3.15274C68.3155 7.25067 64.3944 11.3515 60.4782 15.4552C60.375 15.5725 60.2487 15.665 60.108 15.7262C59.9672 15.7874 59.8154 15.816 59.6631 15.8098C55.9509 15.7989 52.238 15.7964 48.5244 15.8022H47.8998V16.607C47.9123 27.6798 47.9279 38.753 47.9466 49.8265C47.9578 50.065 47.9188 50.3031 47.8323 50.5241C47.7458 50.7451 47.6139 50.9436 47.4459 51.1055C44.6394 54.0136 41.8436 56.9334 39.0586 59.8647C38.9409 59.9887 38.815 60.1051 38.6078 60.3074V59.6809C38.6078 45.3251 38.6057 30.9693 38.6016 16.6135C38.6016 16.2089 38.688 15.9098 38.9742 15.6108C43.8766 10.5144 48.7735 5.41088 53.6648 0.300062C53.8341 0.130605 54.0554 0.0292702 54.2894 0.0140328C61.1413 -0.000468053 67.9931 -0.00373034 74.845 0.00424511C74.9283 -0.000105133 75.0105 0.0151209 75.2458 0.0401348Z" fill="black"/>
<path d="M28.0955 25.065V16.0969H27.3554C23.5391 16.0969 19.7228 16.1034 15.9044 16.0839C15.6223 16.077 15.3516 15.966 15.1403 15.7707C10.1581 10.6265 5.18487 5.47253 0.220691 0.308786C0.162395 0.246795 0.110346 0.178279 0 0.0488586H52.0593L28.0955 25.065Z" fill="#7B1712"/>
<path d="M37.519 17.0888V60.3063C37.2452 60.0388 37.0339 59.8441 36.8351 59.6364C34.0515 56.7282 31.2723 53.8161 28.4977 50.9C28.3188 50.695 28.2159 50.4301 28.2073 50.1528C28.1913 42.5044 28.1913 34.8552 28.2073 27.2053C28.2119 26.9444 28.3053 26.6938 28.4707 26.4984C31.3646 23.4488 34.269 20.4098 37.1838 17.3813C37.264 17.2976 37.3598 17.2269 37.519 17.0888Z" fill="black"/>
<path d="M38.6711 66.8078C38.6711 65.6201 38.7377 64.4271 38.6503 63.2471C38.5795 62.29 38.9011 61.6484 39.5445 60.9937C42.2511 58.2399 44.9015 55.4297 47.5737 52.6412C47.6778 52.5324 47.7902 52.4302 47.9807 52.2464C47.9807 53.5449 47.9183 54.7369 47.9995 55.918C48.0661 56.8903 47.7444 57.5493 47.0813 58.2215C44.4091 60.9327 41.7961 63.7071 39.1635 66.4619C39.0509 66.5978 38.9465 66.7409 38.8512 66.8904L38.6711 66.8078Z" fill="black"/>
<path d="M37.3918 66.7816C36.3852 65.7136 35.3848 64.6413 34.3729 63.5787C32.4283 61.5406 30.4712 59.5156 28.5433 57.4634C28.3435 57.2321 28.2262 56.936 28.2112 56.6249C28.1779 55.1991 28.1967 53.7711 28.1967 52.2376C28.383 52.4106 28.509 52.5161 28.6224 52.6346C31.4755 55.6145 34.3295 58.5941 37.1846 61.5733C37.3051 61.6863 37.4001 61.8257 37.4629 61.9816C37.5257 62.1375 37.5547 62.3059 37.5479 62.4749C37.5292 63.8822 37.5407 65.2895 37.5407 66.6968L37.3918 66.7816Z" fill="black"/>
<path d="M216.071 26.5427H204.397V46.0857H196.586V18.2646H218.385C221.926 18.2646 223.915 20.3675 223.923 24.1561C223.933 30.2004 223.933 36.2438 223.923 42.2862C223.923 46.1403 223.923 46.143 220.322 46.1403L206.922 46.1185C206.807 46.0963 206.696 46.0606 206.589 46.0121V43.71H216.06L216.071 26.5427Z" fill="black"/>
<path d="M271.706 46.1404H263.793V32.232H258.319V46.0965H251.92V32.2347H246.35V46.102H238.531V26.3928H242.665C245.443 26.3928 248.227 26.2994 251.005 26.4368C252.153 26.5281 253.272 26.8645 254.292 27.4255C254.944 27.7716 255.285 27.67 255.882 27.4255C256.974 26.9669 258.139 26.5164 259.294 26.445C261.673 26.2967 264.066 26.4011 266.456 26.4011C269.394 26.4011 271.255 28.016 271.56 31.1608C271.781 33.4267 271.693 35.7283 271.708 38.0271C271.729 40.694 271.706 43.3829 271.706 46.1404Z" fill="black"/>
<path d="M177.913 46.1404H170.168V18.3973H177.906V26.51H187.785C190.727 26.51 192.876 28.4706 192.944 31.537C193.049 36.3539 192.973 41.1734 192.973 46.1049H185.175V32.3207H177.913V46.1404Z" fill="black"/>
<path d="M126.894 18.6628C124.356 21.2872 122.05 23.7035 119.697 26.0595C119.404 26.3499 118.848 26.4568 118.412 26.4677C116.425 26.5088 114.437 26.4869 112.348 26.4869V46.1404H104.471V26.4951C102.724 26.4951 101.118 26.3636 99.5408 26.5307C97.906 26.7033 96.7935 26.0814 95.7071 24.8569C93.879 22.794 91.8889 20.8845 89.7266 18.6655L126.894 18.6628Z" fill="black"/>
<path d="M135.244 32.2046H128.227V43.6699H142.676V46.2401H141.263C134.865 46.2401 128.467 46.2015 122.072 46.2731C120.829 46.2731 120.427 45.7442 120.424 44.6203C120.424 40.1659 120.335 35.7114 120.447 31.2625C120.526 28.2653 122.61 26.3618 125.461 26.3618H137.863C140.814 26.3618 142.302 27.4251 142.955 30.4939C143.514 33.0972 143.624 35.7803 142.378 38.2706C141.553 39.9234 140.349 40.8848 138.417 40.7967C135.779 40.6782 133.131 40.7692 130.415 40.7692V35.1495H135.244V32.2046Z" fill="black"/>
<path d="M285.323 40.702V35.1486H290.108V32.1939H283.258V43.6321H297.508V46.1404H277.169C275.563 46.1404 275.43 46.0473 275.344 44.2893C275.278 42.8297 275.307 41.3674 275.307 39.9079C275.307 37.3064 275.307 34.705 275.307 32.1035C275.308 30.5411 275.835 29.0292 276.793 27.8345C277.13 27.3604 277.571 26.9791 278.079 26.723C278.587 26.467 279.146 26.3438 279.709 26.364C284.097 26.4105 288.486 26.3804 292.874 26.3831C295.623 26.3831 297.179 27.284 297.703 30.0717C298.098 32.39 298.098 34.7636 297.703 37.0819C297.38 39.1083 295.912 40.9512 292.955 40.7376C290.452 40.5569 287.933 40.702 285.323 40.702Z" fill="black"/>
<path d="M166.842 26.3618V32.1027H154.641V43.703H166.819V46.1437C166.459 46.174 166.084 46.2318 165.71 46.2318C159.897 46.2318 154.088 46.2098 148.278 46.2731C147.174 46.2731 146.749 45.7966 146.744 44.8049C146.715 40.2182 146.587 35.6233 146.781 31.0449C146.907 28.0505 148.978 26.3618 151.846 26.3618H166.853H166.842Z" fill="black"/>
<path d="M235.078 46.1404H227.512V26.4946H235.078V46.1404Z" fill="black"/>
<path d="M142.692 47.0777V49.3262H139.519C134.542 49.3262 129.588 49.3262 124.621 49.3262C123.094 49.3262 122.143 48.5105 121.32 47.0696L142.692 47.0777Z" fill="#821710"/>
<path d="M297.456 49.3262H287.706C284.962 49.3262 282.207 49.3262 279.474 49.3262C277.997 49.3262 277.065 48.6508 276.363 47.0696H297.469L297.456 49.3262Z" fill="#821710"/>
<path d="M235.077 24.5023H227.512V18.3973H235.077V24.5023Z" fill="black"/>
<path d="M166.716 47.0696V49.2071C166.43 49.2671 166.14 49.3069 165.849 49.3262C160.83 49.3262 155.812 49.3262 150.794 49.3262C149.245 49.3262 148.327 48.6389 147.734 47.0723L166.716 47.0696Z" fill="#821710"/>
<path d="M206.543 49.3096V47.0696H222.738C222.2 48.3362 221.377 49.2531 220.141 49.2773C215.653 49.3634 211.158 49.3096 206.543 49.3096Z" fill="#821710"/>
<path d="M112.291 47.0696V49.193H104.594V47.0696H112.291Z" fill="#821710"/>
<path d="M192.865 47.0696V49.193H185.035V47.0696H192.865Z" fill="#821710"/>
<path d="M235.209 47.0696V49.193H227.512V47.0696H235.209Z" fill="#821710"/>
<path d="M238.531 49.193V47.0696H246.229V49.193H238.531Z" fill="#821710"/>
<path d="M271.717 49.3258H263.887V47.0696H271.612C271.644 47.781 271.678 48.4814 271.717 49.3258Z" fill="#821710"/>
<path d="M204.279 47.0696V49.193H196.7C196.207 47.1803 196.291 47.0696 198.344 47.0696H204.279Z" fill="#821710"/>
<path d="M177.649 49.193H170.23C169.841 47.1203 169.88 47.0721 171.817 47.0696H176.085C178.025 47.0747 178.074 47.1432 177.649 49.193Z" fill="#821710"/>
<path d="M258.441 47.0696V49.193H252.291C251.853 47.1659 251.922 47.0696 253.853 47.0696H258.441Z" fill="#821710"/>
</svg>
