<svg width="173" height="129" viewBox="0 0 173 129" fill="none" xmlns="http://www.w3.org/2000/svg">
<path d="M141.476 0.0598448C139.889 1.70258 138.438 3.19775 136.996 4.70102C131.142 10.8114 125.295 16.9261 119.456 23.0452C119.302 23.2201 119.114 23.358 118.904 23.4493C118.694 23.5405 118.468 23.5831 118.241 23.5738C112.705 23.5576 107.169 23.5538 101.632 23.5625H100.7V24.7625C100.719 41.2731 100.742 57.7843 100.77 74.296C100.787 74.6516 100.729 75.0067 100.6 75.3362C100.471 75.6657 100.274 75.9616 100.024 76.203C95.8388 80.5394 91.6701 84.893 87.5173 89.2639C87.3419 89.4487 87.1541 89.6222 86.8452 89.9239V88.9898C86.8452 67.5839 86.8421 46.1781 86.8359 24.7722C86.8359 24.169 86.9648 23.723 87.3916 23.2771C94.7016 15.678 102.003 8.06812 109.297 0.44742C109.549 0.194744 109.879 0.0436445 110.228 0.0209242C120.445 -0.000697911 130.661 -0.00556228 140.878 0.00632986C141.002 -0.000156763 141.125 0.0225467 141.476 0.0598448Z" fill="black"/>
<path d="M71.1743 37.3746V24.0024H70.0707C64.3802 24.0024 58.6897 24.0121 52.9962 23.9829C52.5755 23.9727 52.1719 23.8072 51.8568 23.5159C44.4279 15.8455 37.0124 8.16044 29.6103 0.460818C29.5234 0.368383 29.4458 0.266219 29.2812 0.0732422H106.907L71.1743 37.3746Z" fill="black"/>
<path d="M85.2228 25.4814V89.9228C84.8146 89.5239 84.4995 89.2336 84.203 88.9238C80.0524 84.5875 75.9084 80.2453 71.7712 75.8971C71.5045 75.5914 71.3509 75.1964 71.3382 74.783C71.3144 63.3784 71.3144 51.9728 71.3382 40.5661C71.3451 40.1771 71.4843 39.8035 71.7309 39.512C76.0461 34.9649 80.3768 30.4334 84.723 25.9177C84.8425 25.7928 84.9853 25.6874 85.2228 25.4814Z" fill="black"/>
<path d="M104.947 109.308H95.2495V125.542H88.7617V102.432H106.869C109.81 102.432 111.463 104.179 111.469 107.326C111.478 112.347 111.478 117.366 111.469 122.386C111.469 125.587 111.469 125.589 108.478 125.587L97.3473 125.569C97.2521 125.55 97.1592 125.521 97.0705 125.48V123.568H104.938L104.947 109.308Z" fill="black"/>
<path d="M151.158 125.588H144.585V114.035H140.038V125.552H134.723V114.037H130.097V125.556H123.602V109.185H127.035C129.343 109.185 131.655 109.107 133.963 109.221C134.917 109.297 135.846 109.577 136.693 110.043C137.234 110.33 137.518 110.246 138.014 110.043C138.921 109.662 139.889 109.288 140.848 109.228C142.825 109.105 144.812 109.192 146.797 109.192C149.237 109.192 150.783 110.533 151.036 113.145C151.22 115.028 151.147 116.939 151.16 118.849C151.177 121.064 151.158 123.298 151.158 125.588Z" fill="black"/>
<path d="M73.2541 125.588H66.8203V102.543H73.2476V109.282H81.4538C83.8974 109.282 85.6828 110.91 85.7393 113.457C85.8262 117.458 85.7632 121.462 85.7632 125.558H79.286V114.108H73.2541V125.588Z" fill="black"/>
<path d="M30.8732 102.763C28.7646 104.943 26.8492 106.95 24.8946 108.907C24.6517 109.148 24.1896 109.237 23.8274 109.246C22.1766 109.28 20.5257 109.262 18.7903 109.262V125.587H12.2478V109.269C10.7965 109.269 9.46241 109.16 8.15217 109.299C6.7942 109.442 5.87007 108.925 4.96765 107.908C3.44916 106.195 1.79616 104.609 0 102.765L30.8732 102.763Z" fill="black"/>
<path d="M37.8064 114.012H31.9779V123.536H43.9798V125.671H42.8063C37.4919 125.671 32.1774 125.639 26.8652 125.698C25.8326 125.698 25.4986 125.259 25.4964 124.325C25.4964 120.625 25.4227 116.925 25.516 113.23C25.581 110.74 27.312 109.159 29.6807 109.159H39.9821C42.4332 109.159 43.6696 110.042 44.2119 112.592C44.6761 114.754 44.7672 116.983 43.7326 119.051C43.0471 120.424 42.0471 121.223 40.4419 121.149C38.2511 121.051 36.0515 121.127 33.7956 121.127V116.459H37.8064V114.012Z" fill="black"/>
<path d="M162.469 121.071V116.458H166.444V114.004H160.754V123.505H172.591V125.588H155.696C154.362 125.588 154.252 125.511 154.18 124.05C154.126 122.838 154.15 121.623 154.15 120.411C154.15 118.25 154.15 116.089 154.15 113.929C154.151 112.631 154.588 111.375 155.384 110.382C155.664 109.989 156.031 109.672 156.452 109.459C156.874 109.247 157.338 109.144 157.806 109.161C161.451 109.2 165.097 109.175 168.742 109.177C171.025 109.177 172.318 109.925 172.753 112.241C173.081 114.166 173.081 116.138 172.753 118.064C172.485 119.747 171.265 121.278 168.809 121.1C166.73 120.95 164.637 121.071 162.469 121.071Z" fill="black"/>
<path d="M86.9438 99.6171C86.9438 97.8463 87.0432 96.0673 86.9128 94.3078C86.8072 92.8808 87.2869 91.924 88.2462 90.9478C92.2819 86.8417 96.2339 82.6514 100.218 78.4934C100.374 78.3313 100.541 78.1788 100.825 77.9048C100.825 79.841 100.732 81.6184 100.853 83.3795C100.953 84.8293 100.473 85.812 99.4843 86.8142C95.4997 90.8569 91.6036 94.9938 87.678 99.1014C87.5101 99.304 87.3546 99.5174 87.2124 99.7404L86.9438 99.6171Z" fill="black"/>
<path d="M85.0311 99.5775C83.5301 97.985 82.0384 96.3861 80.5297 94.8017C77.6301 91.7628 74.7119 88.7432 71.8372 85.6832C71.5393 85.3384 71.3644 84.8968 71.3421 84.4329C71.2924 82.3069 71.3203 80.1776 71.3203 77.8911C71.5982 78.149 71.786 78.3063 71.9552 78.483C76.2093 82.9264 80.465 87.3691 84.7222 91.8114C84.9018 91.9799 85.0435 92.1878 85.1371 92.4202C85.2308 92.6526 85.2741 92.9038 85.264 93.1558C85.236 95.2542 85.2531 97.3526 85.2531 99.451L85.0311 99.5775Z" fill="black"/>
<path d="M64.0518 109.159V113.928H53.9168V123.563H64.0322V125.591C63.7339 125.616 63.4224 125.664 63.111 125.664C58.2831 125.664 53.4573 125.646 48.6316 125.698C47.7147 125.698 47.362 125.303 47.3576 124.479C47.3337 120.669 47.2269 116.852 47.3881 113.049C47.4926 110.562 49.213 109.159 51.5954 109.159H64.0605H64.0518Z" fill="black"/>
<path d="M120.738 125.588H114.453V109.269H120.738V125.588Z" fill="black"/>
<path d="M43.9943 126.367V128.235H41.3591C37.2246 128.235 33.1097 128.235 28.984 128.235C27.7154 128.235 26.9255 127.557 26.2422 126.36L43.9943 126.367Z" fill="black"/>
<path d="M172.548 128.235H164.449C162.17 128.235 159.882 128.235 157.611 128.235C156.384 128.235 155.61 127.674 155.027 126.36H172.559L172.548 128.235Z" fill="black"/>
<path d="M120.738 107.615H114.453V102.543H120.738V107.615Z" fill="black"/>
<path d="M63.951 126.36V128.136C63.7131 128.186 63.4723 128.219 63.2301 128.235C59.0618 128.235 54.8934 128.235 50.7251 128.235C49.438 128.235 48.6758 127.664 48.1836 126.363L63.951 126.36Z" fill="black"/>
<path d="M97.0312 128.221V126.36H110.483C110.037 127.412 109.353 128.174 108.326 128.194C104.598 128.266 100.864 128.221 97.0312 128.221Z" fill="black"/>
<path d="M18.7428 126.36V128.125H12.3477V126.36H18.7428Z" fill="black"/>
<path d="M85.6734 126.36V128.125H79.168V126.36H85.6734Z" fill="black"/>
<path d="M120.848 126.36V128.125H114.453V126.36H120.848Z" fill="black"/>
<path d="M123.602 128.125V126.36H129.997V128.125H123.602Z" fill="black"/>
<path d="M151.169 128.235H144.664V126.36H151.083C151.109 126.951 151.137 127.533 151.169 128.235Z" fill="black"/>
<path d="M95.1539 126.36V128.125H88.8567C88.4471 126.452 88.5168 126.36 90.2229 126.36H95.1539Z" fill="black"/>
<path d="M73.0328 128.125H66.8686C66.5459 126.403 66.5784 126.362 68.1876 126.36H71.7332C73.3447 126.365 73.3858 126.421 73.0328 128.125Z" fill="black"/>
<path d="M140.14 126.36V128.125H135.031C134.667 126.44 134.724 126.36 136.329 126.36H140.14Z" fill="black"/>
</svg>
